<?xml version="1.0" standalone="no"?>
<!DOCTYPE svg PUBLIC "-//W3C//DTD SVG 20010904//EN"
 "http://www.w3.org/TR/2001/REC-SVG-20010904/DTD/svg10.dtd">
<svg version="1.0" xmlns="http://www.w3.org/2000/svg"
 width="127.000000pt" height="130.000000pt" viewBox="0 0 127.000000 130.000000"
 preserveAspectRatio="xMidYMid meet">

<g transform="translate(0.000000,130.000000) scale(0.100000,-0.100000)"
fill="#000000" stroke="none">
<path d="M770 571 l0 -361 43 17 c52 20 80 37 135 81 l42 33 0 217 -1 217 -97
71 c-53 39 -103 74 -109 78 -10 6 -13 -68 -13 -353z"/>
<path d="M707 898 c-16 -12 -17 -42 -15 -353 3 -332 3 -340 23 -340 20 0 20 8
23 353 1 193 -1 352 -6 352 -4 0 -16 -6 -25 -12z"/>
<path d="M638 859 c-16 -9 -18 -30 -18 -214 0 -176 -2 -205 -15 -205 -13 0
-15 28 -15 195 0 193 0 196 -20 185 -19 -10 -20 -21 -20 -181 0 -157 -1 -170
-17 -167 -16 3 -18 20 -21 156 -2 148 -3 152 -22 142 -18 -10 -20 -22 -20
-146 0 -131 -1 -135 -20 -129 -19 6 -20 2 -20 -113 0 -84 4 -122 13 -129 25
-20 101 -44 158 -50 l59 -6 0 337 c0 185 -1 336 -2 336 -2 0 -11 -5 -20 -11z"/>
<path d="M363 473 c-9 -3 -13 -30 -13 -83 0 -72 2 -79 25 -94 l25 -16 0 100
c0 101 -3 107 -37 93z"/>
<path d="M293 443 c-19 -7 -15 -45 7 -73 l20 -25 0 53 c0 51 -3 55 -27 45z"/>
</g>
</svg>
